<svg width="167" height="49" viewBox="0 0 167 49" fill="none" xmlns="http://www.w3.org/2000/svg">
<path d="M49.256 27.908C49.5547 27.908 49.816 27.8753 50.04 27.81C50.2733 27.7353 50.4693 27.656 50.628 27.572L50.95 28.734C50.7447 28.8367 50.474 28.93 50.138 29.014C49.802 29.098 49.4333 29.14 49.032 29.14C48.5373 29.14 48.0753 29.07 47.646 28.93C47.2167 28.7807 46.8433 28.5613 46.526 28.272C46.2087 27.9827 45.9567 27.6233 45.77 27.194C45.5927 26.7647 45.504 26.2653 45.504 25.696C45.504 25.1733 45.588 24.6973 45.756 24.268C45.9333 23.8387 46.176 23.4747 46.484 23.176C46.8013 22.868 47.1747 22.6347 47.604 22.476C48.0427 22.308 48.5233 22.224 49.046 22.224C49.3353 22.224 49.634 22.252 49.942 22.308C50.25 22.364 50.5813 22.476 50.936 22.644L50.586 23.82C50.3713 23.6987 50.152 23.6053 49.928 23.54C49.704 23.4747 49.4707 23.442 49.228 23.442C48.612 23.442 48.1173 23.6333 47.744 24.016C47.3707 24.3893 47.184 24.9353 47.184 25.654C47.184 26.074 47.2447 26.4287 47.366 26.718C47.4873 27.0073 47.646 27.2407 47.842 27.418C48.038 27.5953 48.2573 27.7213 48.5 27.796C48.752 27.8707 49.004 27.908 49.256 27.908ZM53.9191 29H52.2671V19.032H53.9191V23.036C54.1991 22.8027 54.5164 22.6113 54.8711 22.462C55.2351 22.3033 55.6271 22.224 56.0471 22.224C56.4391 22.224 56.7751 22.2847 57.0551 22.406C57.3444 22.518 57.5824 22.6767 57.7691 22.882C57.9558 23.0873 58.0911 23.33 58.1751 23.61C58.2684 23.89 58.3151 24.198 58.3151 24.534V29H56.6631V24.856C56.6631 24.38 56.5651 24.0393 56.3691 23.834C56.1824 23.6193 55.9024 23.512 55.5291 23.512C55.2584 23.512 54.9831 23.5773 54.7031 23.708C54.4231 23.8387 54.1618 24.0207 53.9191 24.254V29ZM60.1851 22.938C60.5957 22.714 61.0111 22.5413 61.4311 22.42C61.8511 22.2893 62.3131 22.224 62.8171 22.224C63.2091 22.224 63.5637 22.2707 63.8811 22.364C64.1984 22.448 64.4737 22.588 64.7071 22.784C64.9404 22.98 65.1177 23.2367 65.2391 23.554C65.3697 23.862 65.4351 24.24 65.4351 24.688V29H64.1331L63.9651 28.3H63.9231C63.4471 28.86 62.7704 29.14 61.8931 29.14C61.1931 29.14 60.6471 28.958 60.2551 28.594C59.8631 28.2207 59.6671 27.74 59.6671 27.152C59.6671 26.7787 59.7464 26.4567 59.9051 26.186C60.0637 25.9153 60.2784 25.6913 60.5491 25.514C60.8291 25.3367 61.1604 25.206 61.5431 25.122C61.9257 25.0287 62.3411 24.982 62.7891 24.982H63.7691V24.52C63.7691 24.156 63.6617 23.8993 63.4471 23.75C63.2324 23.5913 62.9431 23.512 62.5791 23.512C62.3177 23.512 62.0377 23.554 61.7391 23.638C61.4497 23.722 61.1277 23.8667 60.7731 24.072L60.1851 22.938ZM63.7831 26.032L63.0271 26.06C62.4111 26.0787 61.9817 26.186 61.7391 26.382C61.4964 26.5687 61.3751 26.7973 61.3751 27.068C61.3751 27.4133 61.4777 27.6467 61.6831 27.768C61.8884 27.8893 62.1264 27.95 62.3971 27.95C62.6677 27.95 62.9244 27.8847 63.1671 27.754C63.4191 27.614 63.6244 27.4227 63.7831 27.18V26.032ZM71.0318 23.554H69.1978V26.886C69.1978 27.2033 69.2725 27.4227 69.4218 27.544C69.5805 27.656 69.7811 27.712 70.0238 27.712C70.2105 27.712 70.4065 27.6933 70.6118 27.656C70.8171 27.6187 70.9898 27.5673 71.1298 27.502L71.3818 28.678C71.2045 28.7527 70.9618 28.8273 70.6538 28.902C70.3551 28.9673 70.0331 29 69.6878 29C68.9318 29 68.3858 28.846 68.0498 28.538C67.7231 28.23 67.5598 27.768 67.5598 27.152V23.554H66.5518V22.35H67.5598V20.278H69.1978V22.35H71.0318V23.554ZM72.4965 28.09C72.4965 27.7913 72.5992 27.544 72.8045 27.348C73.0099 27.1427 73.2525 27.04 73.5325 27.04C73.8125 27.04 74.0505 27.1427 74.2465 27.348C74.4425 27.544 74.5405 27.7913 74.5405 28.09C74.5405 28.4167 74.4425 28.6733 74.2465 28.86C74.0505 29.0467 73.8125 29.14 73.5325 29.14C73.2525 29.14 73.0099 29.0467 72.8045 28.86C72.5992 28.6733 72.4965 28.4167 72.4965 28.09ZM77.5028 29H75.8508V22.35H77.1388L77.3488 23.232C77.6661 22.9147 78.0068 22.6673 78.3708 22.49C78.7348 22.3127 79.1408 22.224 79.5888 22.224C80.3074 22.224 80.8628 22.4247 81.2548 22.826C81.6468 23.218 81.8428 23.778 81.8428 24.506V29H80.1908V24.702C80.1908 24.3473 80.0974 24.0627 79.9108 23.848C79.7334 23.624 79.4628 23.512 79.0988 23.512C78.8281 23.512 78.5528 23.5867 78.2728 23.736C77.9928 23.876 77.7361 24.0673 77.5028 24.31V29ZM83.6323 22.938C84.043 22.714 84.4583 22.5413 84.8783 22.42C85.2983 22.2893 85.7603 22.224 86.2643 22.224C86.6563 22.224 87.011 22.2707 87.3283 22.364C87.6457 22.448 87.921 22.588 88.1543 22.784C88.3877 22.98 88.565 23.2367 88.6863 23.554C88.817 23.862 88.8823 24.24 88.8823 24.688V29H87.5803L87.4123 28.3H87.3703C86.8943 28.86 86.2177 29.14 85.3403 29.14C84.6403 29.14 84.0943 28.958 83.7023 28.594C83.3103 28.2207 83.1143 27.74 83.1143 27.152C83.1143 26.7787 83.1937 26.4567 83.3523 26.186C83.511 25.9153 83.7257 25.6913 83.9963 25.514C84.2763 25.3367 84.6077 25.206 84.9903 25.122C85.373 25.0287 85.7883 24.982 86.2363 24.982H87.2163V24.52C87.2163 24.156 87.109 23.8993 86.8943 23.75C86.6797 23.5913 86.3903 23.512 86.0263 23.512C85.765 23.512 85.485 23.554 85.1863 23.638C84.897 23.722 84.575 23.8667 84.2203 24.072L83.6323 22.938ZM87.2303 26.032L86.4743 26.06C85.8583 26.0787 85.429 26.186 85.1863 26.382C84.9437 26.5687 84.8223 26.7973 84.8223 27.068C84.8223 27.4133 84.925 27.6467 85.1303 27.768C85.3357 27.8893 85.5737 27.95 85.8443 27.95C86.115 27.95 86.3717 27.8847 86.6143 27.754C86.8663 27.614 87.0717 27.4227 87.2303 27.18V26.032ZM92.1863 29H90.5343V22.35H91.8223L92.0323 23.232C92.3497 22.9147 92.6903 22.6673 93.0543 22.49C93.4183 22.3127 93.8243 22.224 94.2723 22.224C94.991 22.224 95.5463 22.4247 95.9383 22.826C96.3303 23.218 96.5263 23.778 96.5263 24.506V29H94.8743V24.702C94.8743 24.3473 94.781 24.0627 94.5943 23.848C94.417 23.624 94.1463 23.512 93.7823 23.512C93.5117 23.512 93.2363 23.5867 92.9563 23.736C92.6763 23.876 92.4197 24.0673 92.1863 24.31V29ZM104.628 25.626C104.628 26.1767 104.54 26.6713 104.362 27.11C104.194 27.5487 103.956 27.9173 103.648 28.216C103.34 28.5147 102.981 28.7433 102.57 28.902C102.16 29.0607 101.716 29.14 101.24 29.14C100.764 29.14 100.321 29.0653 99.9103 28.916C99.509 28.7667 99.159 28.552 98.8603 28.272C98.5616 27.9827 98.3283 27.628 98.1603 27.208C97.9923 26.788 97.9083 26.3073 97.9083 25.766C97.9083 25.206 97.9923 24.7067 98.1603 24.268C98.3376 23.82 98.5803 23.4467 98.8883 23.148C99.1963 22.8493 99.5556 22.6207 99.9663 22.462C100.377 22.3033 100.82 22.224 101.296 22.224C101.772 22.224 102.211 22.2987 102.612 22.448C103.023 22.588 103.378 22.8027 103.676 23.092C103.975 23.3813 104.208 23.736 104.376 24.156C104.544 24.576 104.628 25.066 104.628 25.626ZM102.92 25.696C102.92 25.2947 102.874 24.954 102.78 24.674C102.687 24.3847 102.561 24.1513 102.402 23.974C102.253 23.7967 102.076 23.666 101.87 23.582C101.674 23.498 101.469 23.456 101.254 23.456C101.04 23.456 100.834 23.4933 100.638 23.568C100.442 23.6333 100.27 23.7547 100.12 23.932C99.971 24.1 99.8496 24.3287 99.7563 24.618C99.663 24.9073 99.6163 25.2667 99.6163 25.696C99.6163 26.088 99.663 26.424 99.7563 26.704C99.8496 26.9747 99.971 27.2033 100.12 27.39C100.279 27.5673 100.456 27.698 100.652 27.782C100.858 27.866 101.068 27.908 101.282 27.908C101.488 27.908 101.688 27.8707 101.884 27.796C102.09 27.7213 102.267 27.6 102.416 27.432C102.566 27.264 102.687 27.04 102.78 26.76C102.874 26.4707 102.92 26.116 102.92 25.696ZM105.815 28.09C105.815 27.7913 105.918 27.544 106.123 27.348C106.328 27.1427 106.571 27.04 106.851 27.04C107.131 27.04 107.369 27.1427 107.565 27.348C107.761 27.544 107.859 27.7913 107.859 28.09C107.859 28.4167 107.761 28.6733 107.565 28.86C107.369 29.0467 107.131 29.14 106.851 29.14C106.571 29.14 106.328 29.0467 106.123 28.86C105.918 28.6733 105.815 28.4167 105.815 28.09ZM115.511 25.626C115.511 26.1767 115.422 26.6713 115.245 27.11C115.077 27.5487 114.839 27.9173 114.531 28.216C114.223 28.5147 113.864 28.7433 113.453 28.902C113.042 29.0607 112.599 29.14 112.123 29.14C111.647 29.14 111.204 29.0653 110.793 28.916C110.392 28.7667 110.042 28.552 109.743 28.272C109.444 27.9827 109.211 27.628 109.043 27.208C108.875 26.788 108.791 26.3073 108.791 25.766C108.791 25.206 108.875 24.7067 109.043 24.268C109.22 23.82 109.463 23.4467 109.771 23.148C110.079 22.8493 110.438 22.6207 110.849 22.462C111.26 22.3033 111.703 22.224 112.179 22.224C112.655 22.224 113.094 22.2987 113.495 22.448C113.906 22.588 114.26 22.8027 114.559 23.092C114.858 23.3813 115.091 23.736 115.259 24.156C115.427 24.576 115.511 25.066 115.511 25.626ZM113.803 25.696C113.803 25.2947 113.756 24.954 113.663 24.674C113.57 24.3847 113.444 24.1513 113.285 23.974C113.136 23.7967 112.958 23.666 112.753 23.582C112.557 23.498 112.352 23.456 112.137 23.456C111.922 23.456 111.717 23.4933 111.521 23.568C111.325 23.6333 111.152 23.7547 111.003 23.932C110.854 24.1 110.732 24.3287 110.639 24.618C110.546 24.9073 110.499 25.2667 110.499 25.696C110.499 26.088 110.546 26.424 110.639 26.704C110.732 26.9747 110.854 27.2033 111.003 27.39C111.162 27.5673 111.339 27.698 111.535 27.782C111.74 27.866 111.95 27.908 112.165 27.908C112.37 27.908 112.571 27.8707 112.767 27.796C112.972 27.7213 113.15 27.6 113.299 27.432C113.448 27.264 113.57 27.04 113.663 26.76C113.756 26.4707 113.803 26.116 113.803 25.696ZM116.88 29V22.35H118.154L118.364 23.596C118.522 23.2133 118.774 22.8913 119.12 22.63C119.465 22.3593 119.894 22.224 120.408 22.224C120.632 22.224 120.828 22.2473 120.996 22.294C121.164 22.3407 121.304 22.392 121.416 22.448L121.136 23.792C121.033 23.736 120.907 23.6893 120.758 23.652C120.608 23.6053 120.426 23.582 120.212 23.582C119.736 23.582 119.334 23.7453 119.008 24.072C118.681 24.3987 118.518 24.9167 118.518 25.626V29H116.88ZM122.046 24.604C122.046 24.24 122.116 23.9133 122.256 23.624C122.396 23.3253 122.592 23.0733 122.844 22.868C123.096 22.6627 123.39 22.504 123.726 22.392C124.071 22.28 124.449 22.224 124.86 22.224C125.009 22.224 125.168 22.238 125.336 22.266C125.504 22.2847 125.663 22.3127 125.812 22.35H128.654V23.442H128.122L127.17 23.302C127.301 23.47 127.408 23.6707 127.492 23.904C127.585 24.128 127.632 24.3613 127.632 24.604C127.632 24.9587 127.567 25.2807 127.436 25.57C127.305 25.8593 127.114 26.1067 126.862 26.312C126.619 26.5173 126.325 26.676 125.98 26.788C125.644 26.8907 125.266 26.942 124.846 26.942C124.585 26.942 124.361 26.9233 124.174 26.886C123.894 27.0073 123.754 27.1847 123.754 27.418C123.754 27.7353 124.001 27.894 124.496 27.894H126.064C126.792 27.894 127.371 28.0573 127.8 28.384C128.229 28.7013 128.444 29.1913 128.444 29.854C128.444 30.218 128.36 30.5493 128.192 30.848C128.024 31.1467 127.781 31.4033 127.464 31.618C127.156 31.8327 126.783 31.996 126.344 32.108C125.905 32.2293 125.415 32.29 124.874 32.29C123.875 32.29 123.087 32.1127 122.508 31.758C121.929 31.4127 121.64 30.904 121.64 30.232C121.64 29.9053 121.743 29.6253 121.948 29.392C122.163 29.168 122.447 28.9953 122.802 28.874C122.653 28.7713 122.517 28.6407 122.396 28.482C122.284 28.314 122.228 28.0993 122.228 27.838C122.228 27.5393 122.317 27.2827 122.494 27.068C122.681 26.844 122.923 26.6667 123.222 26.536C122.914 26.3773 122.639 26.144 122.396 25.836C122.163 25.5187 122.046 25.108 122.046 24.604ZM123.74 29.154C123.563 29.2287 123.423 29.336 123.32 29.476C123.217 29.616 123.166 29.7887 123.166 29.994C123.166 30.3207 123.301 30.5727 123.572 30.75C123.852 30.9367 124.305 31.03 124.93 31.03C125.266 31.03 125.551 30.9973 125.784 30.932C126.027 30.876 126.223 30.7967 126.372 30.694C126.531 30.5913 126.643 30.4747 126.708 30.344C126.783 30.2133 126.82 30.078 126.82 29.938C126.82 29.6393 126.717 29.434 126.512 29.322C126.307 29.21 126.013 29.154 125.63 29.154H123.74ZM125.994 24.604C125.994 24.184 125.887 23.876 125.672 23.68C125.457 23.4747 125.182 23.372 124.846 23.372C124.501 23.372 124.221 23.4747 124.006 23.68C123.791 23.8853 123.684 24.184 123.684 24.576C123.684 24.9867 123.791 25.29 124.006 25.486C124.23 25.682 124.51 25.78 124.846 25.78C125.191 25.78 125.467 25.682 125.672 25.486C125.887 25.29 125.994 24.996 125.994 24.604Z" fill="white"/>
<g clip-path="url(#clip0)">
<path d="M9.21301 23.016C8.94569 22.9933 8.67776 23.052 8.4443 23.1841C8.21083 23.3163 8.02272 23.5159 7.90457 23.7568C7.78642 23.9976 7.74375 24.2685 7.78214 24.5341C7.82054 24.7996 7.9382 25.0473 8.11973 25.2449C8.30127 25.4424 8.53821 25.5805 8.79955 25.6412C9.06089 25.7018 9.33445 25.6821 9.58442 25.5847C9.83438 25.4872 10.0491 25.3166 10.2005 25.0951C10.3519 24.8736 10.4329 24.6116 10.4328 24.3433C10.4468 24.0056 10.3262 23.6762 10.0975 23.4273C9.86881 23.1784 9.55069 23.0305 9.21301 23.016ZM13.5771 23.016C13.3098 22.9933 13.0419 23.052 12.8084 23.1841C12.5749 23.3163 12.3868 23.5159 12.2687 23.7568C12.1505 23.9976 12.1079 24.2685 12.1463 24.5341C12.1846 24.7996 12.3023 25.0473 12.4838 25.2449C12.6654 25.4424 12.9023 25.5805 13.1637 25.6412C13.425 25.7018 13.6986 25.6821 13.9485 25.5847C14.1985 25.4872 14.4132 25.3166 14.5646 25.0951C14.716 24.8736 14.797 24.6116 14.7969 24.3433C14.8109 24.0056 14.6903 23.6762 14.4616 23.4273C14.2329 23.1784 13.9148 23.0305 13.5771 23.016Z" fill="white"/>
<path d="M20.085 12H2.665C1.95664 12.0021 1.27806 12.2853 0.778366 12.7874C0.278668 13.2895 -0.00128659 13.9694 4.44556e-06 14.6778V32.2539C-0.00128659 32.9622 0.278668 33.6422 0.778366 34.1443C1.27806 34.6463 1.95664 34.9295 2.665 34.9316H17.4072L16.7178 32.5272L18.3816 34.0745L19.9544 35.5324L22.7488 38.0024V14.6778C22.7501 13.9696 22.4703 13.2899 21.9709 12.7878C21.4714 12.2858 20.7932 12.0024 20.085 12ZM15.0654 28.9778C15.0654 28.9778 14.5977 28.4189 14.2077 27.925C15.1499 27.703 15.9833 27.1549 16.5604 26.3778C16.0927 26.6891 15.5911 26.9465 15.0654 27.145C14.4612 27.403 13.8293 27.5905 13.1822 27.7039C12.0688 27.909 10.9269 27.9047 9.81501 27.6911C9.16226 27.5635 8.52256 27.3764 7.90388 27.1322C7.57783 27.0068 7.26078 26.859 6.95501 26.69C6.91613 26.6639 6.87725 26.6511 6.83776 26.625C6.81815 26.6153 6.80046 26.6021 6.78552 26.5861C6.55164 26.4561 6.42103 26.365 6.42103 26.365C6.9774 27.1258 7.7821 27.6684 8.69603 27.8989C8.30603 28.3928 7.82491 28.9778 7.82491 28.9778C4.95215 28.8866 3.85991 27.0016 3.85991 27.0016C3.90221 24.3662 4.54239 21.7747 5.73215 19.4228C6.77904 18.6005 8.05536 18.1236 9.38491 18.0578L9.51491 18.2139C8.26418 18.5229 7.09689 19.1036 6.09603 19.9148C6.09603 19.9148 6.38215 19.7587 6.86328 19.5376C7.79778 19.1111 8.79373 18.8347 9.8144 18.7187C9.88721 18.7036 9.96119 18.6948 10.0355 18.6926C10.9067 18.579 11.7884 18.5702 12.6616 18.6664C14.0348 18.8232 15.364 19.2471 16.5744 19.9142C15.6244 19.1409 14.521 18.5781 13.3372 18.2631L13.5194 18.0553C14.8489 18.1211 16.1253 18.5981 17.1722 19.4203C18.3629 21.7739 19.0033 24.3673 19.045 27.0047C19.045 27.0047 17.94 28.8879 15.0654 28.9778Z" fill="white"/>
</g>
<defs>
<clipPath id="clip0">
<rect width="22.75" height="26" fill="white" transform="translate(0 12)"/>
</clipPath>
</defs>
</svg>
