<svg width="172" height="49" viewBox="0 0 172 49" fill="none" xmlns="http://www.w3.org/2000/svg">
<g clip-path="url(#clip0)">
<path d="M32.0004 18.0783C30.7966 18.6032 29.5236 18.9521 28.2204 19.114C29.5938 18.2992 30.6206 17.009 31.1063 15.4878C29.8203 16.2505 28.4133 16.7877 26.9462 17.0761C26.0467 16.1155 24.8791 15.4476 23.5951 15.1593C22.3111 14.8709 20.9701 14.9755 19.7463 15.4593C18.5224 15.9431 17.4724 16.7838 16.7327 17.8722C15.993 18.9606 15.5977 20.2463 15.5983 21.5623C15.593 22.0651 15.6439 22.5669 15.7499 23.0584C13.1401 22.9303 10.5866 22.2529 8.25644 21.0704C5.9263 19.8879 3.87197 18.2269 2.22775 16.1961C1.38358 17.6394 1.1222 19.3505 1.49698 20.98C1.87177 22.6096 2.85444 24.0346 4.24435 24.9641C3.20569 24.9356 2.18909 24.6578 1.28025 24.1542V24.2264C1.28205 25.7412 1.80567 27.2092 2.76296 28.3833C3.72025 29.5573 5.05277 30.3657 6.53625 30.6724C5.97504 30.8203 5.39666 30.8928 4.81632 30.8882C4.39944 30.8956 3.98297 30.8579 3.57416 30.776C3.99822 32.0779 4.81537 33.2164 5.91314 34.0348C7.01092 34.8531 8.33534 35.3111 9.70414 35.3458C7.38228 37.1625 4.51842 38.1485 1.57025 38.1461C1.04544 38.1496 0.520953 38.1195 0 38.0559C2.99988 39.989 6.49556 41.0116 10.0643 41C22.1365 41 28.7362 30.9998 28.7362 22.3321C28.7362 22.0421 28.7262 21.7621 28.7122 21.4841C30.0062 20.5582 31.1204 19.404 32.0004 18.0783Z" fill="white"/>
</g>
<path d="M57.798 28.202H57.77C57.4713 28.5007 57.154 28.734 56.818 28.902C56.482 29.0607 56.062 29.14 55.558 29.14C54.97 29.14 54.508 28.9813 54.172 28.664C53.836 28.3373 53.668 27.922 53.668 27.418C53.668 26.9887 53.7567 26.62 53.934 26.312C54.1207 26.004 54.3633 25.752 54.662 25.556C54.97 25.36 55.32 25.2153 55.712 25.122C56.1133 25.0287 56.5333 24.982 56.972 24.982H57.952L58.022 24.562C58.0313 24.5153 58.036 24.4687 58.036 24.422C58.0453 24.3753 58.05 24.3287 58.05 24.282C58.05 23.9927 57.9567 23.7827 57.77 23.652C57.5833 23.512 57.3267 23.442 57 23.442C56.748 23.442 56.454 23.4887 56.118 23.582C55.7913 23.6753 55.4413 23.82 55.068 24.016L54.676 22.938C55.124 22.7047 55.558 22.5273 55.978 22.406C56.4073 22.2847 56.86 22.224 57.336 22.224C57.6813 22.224 57.994 22.2613 58.274 22.336C58.5633 22.4013 58.806 22.5133 59.002 22.672C59.2073 22.8213 59.366 23.0173 59.478 23.26C59.59 23.5027 59.646 23.7967 59.646 24.142C59.646 24.31 59.632 24.492 59.604 24.688L59.24 26.928C59.2213 27.0307 59.2027 27.124 59.184 27.208C59.1747 27.2827 59.17 27.3573 59.17 27.432C59.17 27.6187 59.212 27.754 59.296 27.838C59.38 27.9127 59.5013 27.95 59.66 27.95C59.8373 27.95 60.0333 27.8847 60.248 27.754C60.472 27.6233 60.682 27.418 60.878 27.138C61.074 26.858 61.2373 26.4987 61.368 26.06C61.508 25.612 61.578 25.0707 61.578 24.436C61.578 23.8667 61.4847 23.3347 61.298 22.84C61.1207 22.3453 60.8593 21.916 60.514 21.552C60.178 21.188 59.758 20.9033 59.254 20.698C58.7593 20.4927 58.1947 20.39 57.56 20.39C56.776 20.39 56.0387 20.5207 55.348 20.782C54.6667 21.0433 54.074 21.4353 53.57 21.958C53.066 22.4713 52.6693 23.1107 52.38 23.876C52.0907 24.6413 51.946 25.528 51.946 26.536C51.946 27.3667 52.0813 28.062 52.352 28.622C52.6227 29.182 52.9773 29.6347 53.416 29.98C53.8547 30.3347 54.3447 30.5867 54.886 30.736C55.4273 30.8853 55.9733 30.96 56.524 30.96C57.1213 30.96 57.63 30.9087 58.05 30.806C58.47 30.7127 58.8667 30.5867 59.24 30.428L59.534 31.422C59.142 31.59 58.666 31.7393 58.106 31.87C57.546 32.0007 56.944 32.066 56.3 32.066C55.6 32.066 54.9093 31.968 54.228 31.772C53.556 31.576 52.954 31.2633 52.422 30.834C51.89 30.4047 51.4607 29.8447 51.134 29.154C50.8073 28.4633 50.644 27.628 50.644 26.648C50.644 25.4907 50.826 24.4593 51.19 23.554C51.5633 22.6487 52.0627 21.8833 52.688 21.258C53.3227 20.6233 54.0507 20.1427 54.872 19.816C55.7027 19.48 56.58 19.312 57.504 19.312C58.372 19.312 59.142 19.4427 59.814 19.704C60.486 19.956 61.0507 20.306 61.508 20.754C61.9653 21.202 62.3107 21.734 62.544 22.35C62.7867 22.966 62.908 23.6333 62.908 24.352C62.908 25.164 62.796 25.864 62.572 26.452C62.3573 27.04 62.068 27.5253 61.704 27.908C61.3493 28.2813 60.948 28.5613 60.5 28.748C60.0613 28.9253 59.618 29.014 59.17 29.014C58.9553 29.014 58.7547 29 58.568 28.972C58.3813 28.944 58.232 28.9067 58.12 28.86L57.798 28.202ZM57.812 25.962L57.056 25.99C56.4213 26.0087 55.9733 26.1393 55.712 26.382C55.4507 26.6247 55.32 26.9233 55.32 27.278C55.32 27.5393 55.4087 27.7307 55.586 27.852C55.7633 27.964 55.9733 28.02 56.216 28.02C56.4867 28.02 56.7387 27.964 56.972 27.852C57.2053 27.7307 57.4153 27.5627 57.602 27.348L57.812 25.962ZM66.0418 29H64.3898V22.35H65.6778L65.8878 23.232C66.2051 22.9147 66.5458 22.6673 66.9098 22.49C67.2738 22.3127 67.6798 22.224 68.1278 22.224C68.8465 22.224 69.4018 22.4247 69.7938 22.826C70.1858 23.218 70.3818 23.778 70.3818 24.506V29H68.7298V24.702C68.7298 24.3473 68.6365 24.0627 68.4498 23.848C68.2725 23.624 68.0018 23.512 67.6378 23.512C67.3671 23.512 67.0918 23.5867 66.8118 23.736C66.5318 23.876 66.2751 24.0673 66.0418 24.31V29ZM72.1714 22.938C72.5821 22.714 72.9974 22.5413 73.4174 22.42C73.8374 22.2893 74.2994 22.224 74.8034 22.224C75.1954 22.224 75.5501 22.2707 75.8674 22.364C76.1847 22.448 76.4601 22.588 76.6934 22.784C76.9267 22.98 77.1041 23.2367 77.2254 23.554C77.3561 23.862 77.4214 24.24 77.4214 24.688V29H76.1194L75.9514 28.3H75.9094C75.4334 28.86 74.7567 29.14 73.8794 29.14C73.1794 29.14 72.6334 28.958 72.2414 28.594C71.8494 28.2207 71.6534 27.74 71.6534 27.152C71.6534 26.7787 71.7327 26.4567 71.8914 26.186C72.0501 25.9153 72.2647 25.6913 72.5354 25.514C72.8154 25.3367 73.1467 25.206 73.5294 25.122C73.9121 25.0287 74.3274 24.982 74.7754 24.982H75.7554V24.52C75.7554 24.156 75.6481 23.8993 75.4334 23.75C75.2187 23.5913 74.9294 23.512 74.5654 23.512C74.3041 23.512 74.0241 23.554 73.7254 23.638C73.4361 23.722 73.1141 23.8667 72.7594 24.072L72.1714 22.938ZM75.7694 26.032L75.0134 26.06C74.3974 26.0787 73.9681 26.186 73.7254 26.382C73.4827 26.5687 73.3614 26.7973 73.3614 27.068C73.3614 27.4133 73.4641 27.6467 73.6694 27.768C73.8747 27.8893 74.1127 27.95 74.3834 27.95C74.6541 27.95 74.9107 27.8847 75.1534 27.754C75.4054 27.614 75.6107 27.4227 75.7694 27.18V26.032ZM80.7254 29H79.0734V22.35H80.3614L80.5714 23.232C80.8887 22.9147 81.2294 22.6673 81.5934 22.49C81.9574 22.3127 82.3634 22.224 82.8114 22.224C83.5301 22.224 84.0854 22.4247 84.4774 22.826C84.8694 23.218 85.0654 23.778 85.0654 24.506V29H83.4134V24.702C83.4134 24.3473 83.3201 24.0627 83.1334 23.848C82.9561 23.624 82.6854 23.512 82.3214 23.512C82.0507 23.512 81.7754 23.5867 81.4954 23.736C81.2154 23.876 80.9587 24.0673 80.7254 24.31V29ZM93.1674 25.626C93.1674 26.1767 93.0787 26.6713 92.9014 27.11C92.7334 27.5487 92.4954 27.9173 92.1874 28.216C91.8794 28.5147 91.52 28.7433 91.1094 28.902C90.6987 29.0607 90.2554 29.14 89.7794 29.14C89.3034 29.14 88.86 29.0653 88.4494 28.916C88.048 28.7667 87.698 28.552 87.3994 28.272C87.1007 27.9827 86.8674 27.628 86.6994 27.208C86.5314 26.788 86.4474 26.3073 86.4474 25.766C86.4474 25.206 86.5314 24.7067 86.6994 24.268C86.8767 23.82 87.1194 23.4467 87.4274 23.148C87.7354 22.8493 88.0947 22.6207 88.5054 22.462C88.916 22.3033 89.3594 22.224 89.8354 22.224C90.3114 22.224 90.75 22.2987 91.1514 22.448C91.562 22.588 91.9167 22.8027 92.2154 23.092C92.514 23.3813 92.7474 23.736 92.9154 24.156C93.0834 24.576 93.1674 25.066 93.1674 25.626ZM91.4594 25.696C91.4594 25.2947 91.4127 24.954 91.3194 24.674C91.226 24.3847 91.1 24.1513 90.9414 23.974C90.792 23.7967 90.6147 23.666 90.4094 23.582C90.2134 23.498 90.008 23.456 89.7934 23.456C89.5787 23.456 89.3734 23.4933 89.1774 23.568C88.9814 23.6333 88.8087 23.7547 88.6594 23.932C88.51 24.1 88.3887 24.3287 88.2954 24.618C88.202 24.9073 88.1554 25.2667 88.1554 25.696C88.1554 26.088 88.202 26.424 88.2954 26.704C88.3887 26.9747 88.51 27.2033 88.6594 27.39C88.818 27.5673 88.9954 27.698 89.1914 27.782C89.3967 27.866 89.6067 27.908 89.8214 27.908C90.0267 27.908 90.2274 27.8707 90.4234 27.796C90.6287 27.7213 90.806 27.6 90.9554 27.432C91.1047 27.264 91.226 27.04 91.3194 26.76C91.4127 26.4707 91.4594 26.116 91.4594 25.696Z" fill="white"/>
<defs>
<clipPath id="clip0">
<rect width="32.0004" height="26" fill="white" transform="translate(0 15)"/>
</clipPath>
</defs>
</svg>
