<svg width="200" height="200" viewBox="0 0 200 200" fill="none" xmlns="http://www.w3.org/2000/svg">
<circle cx="100" cy="100" r="100" fill="#4A90E2"/>
<path d="M80.7288 77.335C83.2854 77.335 85.5604 77.5517 87.5538 77.985C89.5471 78.4183 91.3454 79.0033 92.9488 79.74L91.0638 85.785C89.5471 85.0483 87.9871 84.5067 86.3838 84.16C84.7804 83.8133 83.1988 83.64 81.6388 83.64C79.8621 83.64 78.1721 83.9217 76.5688 84.485C75.0088 85.0483 73.6438 85.9367 72.4738 87.15C71.3038 88.3633 70.3721 89.9233 69.6788 91.83C68.9854 93.6933 68.6388 95.9467 68.6388 98.59C68.6388 103.313 69.6788 106.953 71.7588 109.51C73.8821 112.023 76.8938 113.28 80.7938 113.28C83.0471 113.28 84.7371 113.063 85.8638 112.63V103.075H79.1038V96.445H94.3788V117.18C92.6888 117.917 90.7171 118.523 88.4638 119C86.2104 119.477 83.6321 119.715 80.7288 119.715C77.6954 119.715 74.8571 119.26 72.2138 118.35C69.6138 117.44 67.3388 116.097 65.3888 114.32C63.4821 112.5 61.9654 110.29 60.8388 107.69C59.7554 105.047 59.2138 102.013 59.2138 98.59C59.2138 95.1667 59.7554 92.1333 60.8388 89.49C61.9654 86.8033 63.4821 84.5717 65.3888 82.795C67.2954 81.0183 69.5488 79.675 72.1488 78.765C74.7921 77.8117 77.6521 77.335 80.7288 77.335ZM120.63 77.335C123.533 77.335 126.22 77.8117 128.69 78.765C131.16 79.7183 133.283 81.105 135.06 82.925C136.836 84.7017 138.223 86.9117 139.22 89.555C140.26 92.1983 140.78 95.21 140.78 98.59C140.78 101.883 140.26 104.83 139.22 107.43C138.18 110.03 136.75 112.24 134.93 114.06C133.11 115.88 130.943 117.288 128.43 118.285C125.96 119.238 123.273 119.715 120.37 119.715C117.466 119.715 114.78 119.26 112.31 118.35C109.84 117.397 107.716 116.032 105.94 114.255C104.163 112.435 102.755 110.225 101.715 107.625C100.718 104.982 100.22 101.97 100.22 98.59C100.22 95.2967 100.74 92.35 101.78 89.75C102.82 87.1067 104.25 84.875 106.07 83.055C107.89 81.1917 110.035 79.7833 112.505 78.83C115.018 77.8333 117.726 77.335 120.63 77.335ZM109.645 98.59C109.645 101.017 109.926 103.14 110.49 104.96C111.096 106.737 111.898 108.232 112.895 109.445C113.891 110.615 115.04 111.503 116.34 112.11C117.683 112.673 119.113 112.955 120.63 112.955C122.103 112.955 123.49 112.673 124.79 112.11C126.133 111.503 127.281 110.615 128.235 109.445C129.188 108.232 129.946 106.737 130.51 104.96C131.073 103.14 131.355 101.017 131.355 98.59C131.355 96.0767 131.051 93.91 130.445 92.09C129.881 90.27 129.101 88.775 128.105 87.605C127.108 86.3917 125.938 85.5033 124.595 84.94C123.295 84.3767 121.886 84.095 120.37 84.095C118.853 84.095 117.445 84.3983 116.145 85.005C114.845 85.6117 113.718 86.5217 112.765 87.735C111.811 88.905 111.053 90.4 110.49 92.22C109.926 94.04 109.645 96.1633 109.645 98.59Z" fill="white"/>
</svg>
