<svg width="175" height="49" viewBox="0 0 175 49" fill="none" xmlns="http://www.w3.org/2000/svg">
<path d="M53.868 29V22.35H55.142L55.352 23.596C55.5107 23.2133 55.7627 22.8913 56.108 22.63C56.4533 22.3593 56.8827 22.224 57.396 22.224C57.62 22.224 57.816 22.2473 57.984 22.294C58.152 22.3407 58.292 22.392 58.404 22.448L58.124 23.792C58.0213 23.736 57.8953 23.6893 57.746 23.652C57.5967 23.6053 57.4147 23.582 57.2 23.582C56.724 23.582 56.3227 23.7453 55.996 24.072C55.6693 24.3987 55.506 24.9167 55.506 25.626V29H53.868ZM57.6618 30.526L61.6378 18.5H62.8978L58.9218 30.526H57.6618ZM65.118 29H63.466V22.35H64.754L64.964 23.232C65.2813 22.9147 65.622 22.6673 65.986 22.49C66.35 22.3127 66.756 22.224 67.204 22.224C67.9227 22.224 68.478 22.4247 68.87 22.826C69.262 23.218 69.458 23.778 69.458 24.506V29H67.806V24.702C67.806 24.3473 67.7127 24.0627 67.526 23.848C67.3487 23.624 67.078 23.512 66.714 23.512C66.4433 23.512 66.168 23.5867 65.888 23.736C65.608 23.876 65.3513 24.0673 65.118 24.31V29ZM71.2476 22.938C71.6582 22.714 72.0736 22.5413 72.4936 22.42C72.9136 22.2893 73.3756 22.224 73.8796 22.224C74.2716 22.224 74.6262 22.2707 74.9436 22.364C75.2609 22.448 75.5362 22.588 75.7696 22.784C76.0029 22.98 76.1802 23.2367 76.3016 23.554C76.4322 23.862 76.4976 24.24 76.4976 24.688V29H75.1956L75.0276 28.3H74.9856C74.5096 28.86 73.8329 29.14 72.9556 29.14C72.2556 29.14 71.7096 28.958 71.3176 28.594C70.9256 28.2207 70.7296 27.74 70.7296 27.152C70.7296 26.7787 70.8089 26.4567 70.9676 26.186C71.1262 25.9153 71.3409 25.6913 71.6116 25.514C71.8916 25.3367 72.2229 25.206 72.6056 25.122C72.9882 25.0287 73.4036 24.982 73.8516 24.982H74.8316V24.52C74.8316 24.156 74.7242 23.8993 74.5096 23.75C74.2949 23.5913 74.0056 23.512 73.6416 23.512C73.3802 23.512 73.1002 23.554 72.8016 23.638C72.5122 23.722 72.1902 23.8667 71.8356 24.072L71.2476 22.938ZM74.8456 26.032L74.0896 26.06C73.4736 26.0787 73.0442 26.186 72.8016 26.382C72.5589 26.5687 72.4376 26.7973 72.4376 27.068C72.4376 27.4133 72.5402 27.6467 72.7456 27.768C72.9509 27.8893 73.1889 27.95 73.4596 27.95C73.7302 27.95 73.9869 27.8847 74.2296 27.754C74.4816 27.614 74.6869 27.4227 74.8456 27.18V26.032ZM79.8016 29H78.1496V22.35H79.4376L79.6476 23.232C79.9649 22.9147 80.3056 22.6673 80.6696 22.49C81.0336 22.3127 81.4396 22.224 81.8876 22.224C82.6062 22.224 83.1616 22.4247 83.5536 22.826C83.9456 23.218 84.1416 23.778 84.1416 24.506V29H82.4896V24.702C82.4896 24.3473 82.3962 24.0627 82.2096 23.848C82.0322 23.624 81.7616 23.512 81.3976 23.512C81.1269 23.512 80.8516 23.5867 80.5716 23.736C80.2916 23.876 80.0349 24.0673 79.8016 24.31V29ZM92.2435 25.626C92.2435 26.1767 92.1549 26.6713 91.9775 27.11C91.8095 27.5487 91.5715 27.9173 91.2635 28.216C90.9555 28.5147 90.5962 28.7433 90.1855 28.902C89.7749 29.0607 89.3315 29.14 88.8555 29.14C88.3795 29.14 87.9362 29.0653 87.5255 28.916C87.1242 28.7667 86.7742 28.552 86.4755 28.272C86.1769 27.9827 85.9435 27.628 85.7755 27.208C85.6075 26.788 85.5235 26.3073 85.5235 25.766C85.5235 25.206 85.6075 24.7067 85.7755 24.268C85.9529 23.82 86.1955 23.4467 86.5035 23.148C86.8115 22.8493 87.1709 22.6207 87.5815 22.462C87.9922 22.3033 88.4355 22.224 88.9115 22.224C89.3875 22.224 89.8262 22.2987 90.2275 22.448C90.6382 22.588 90.9929 22.8027 91.2915 23.092C91.5902 23.3813 91.8235 23.736 91.9915 24.156C92.1595 24.576 92.2435 25.066 92.2435 25.626ZM90.5355 25.696C90.5355 25.2947 90.4889 24.954 90.3955 24.674C90.3022 24.3847 90.1762 24.1513 90.0175 23.974C89.8682 23.7967 89.6909 23.666 89.4855 23.582C89.2895 23.498 89.0842 23.456 88.8695 23.456C88.6549 23.456 88.4495 23.4933 88.2535 23.568C88.0575 23.6333 87.8849 23.7547 87.7355 23.932C87.5862 24.1 87.4649 24.3287 87.3715 24.618C87.2782 24.9073 87.2315 25.2667 87.2315 25.696C87.2315 26.088 87.2782 26.424 87.3715 26.704C87.4649 26.9747 87.5862 27.2033 87.7355 27.39C87.8942 27.5673 88.0715 27.698 88.2675 27.782C88.4729 27.866 88.6829 27.908 88.8975 27.908C89.1029 27.908 89.3035 27.8707 89.4995 27.796C89.7049 27.7213 89.8822 27.6 90.0315 27.432C90.1809 27.264 90.3022 27.04 90.3955 26.76C90.4889 26.4707 90.5355 26.116 90.5355 25.696ZM97.0001 27.908C97.2988 27.908 97.5601 27.8753 97.7841 27.81C98.0175 27.7353 98.2135 27.656 98.3721 27.572L98.6941 28.734C98.4888 28.8367 98.2181 28.93 97.8821 29.014C97.5461 29.098 97.1775 29.14 96.7761 29.14C96.2815 29.14 95.8195 29.07 95.3901 28.93C94.9608 28.7807 94.5875 28.5613 94.2701 28.272C93.9528 27.9827 93.7008 27.6233 93.5141 27.194C93.3368 26.7647 93.2481 26.2653 93.2481 25.696C93.2481 25.1733 93.3321 24.6973 93.5001 24.268C93.6775 23.8387 93.9201 23.4747 94.2281 23.176C94.5455 22.868 94.9188 22.6347 95.3481 22.476C95.7868 22.308 96.2675 22.224 96.7901 22.224C97.0795 22.224 97.3781 22.252 97.6861 22.308C97.9941 22.364 98.3255 22.476 98.6801 22.644L98.3301 23.82C98.1155 23.6987 97.8961 23.6053 97.6721 23.54C97.4481 23.4747 97.2148 23.442 96.9721 23.442C96.3561 23.442 95.8615 23.6333 95.4881 24.016C95.1148 24.3893 94.9281 24.9353 94.9281 25.654C94.9281 26.074 94.9888 26.4287 95.1101 26.718C95.2315 27.0073 95.3901 27.2407 95.5861 27.418C95.7821 27.5953 96.0015 27.7213 96.2441 27.796C96.4961 27.8707 96.7481 27.908 97.0001 27.908ZM104.337 22.35H105.989V29H104.743L104.547 28.23H104.491C104.277 28.454 103.992 28.664 103.637 28.86C103.283 29.0467 102.839 29.14 102.307 29.14C101.607 29.14 101.047 28.944 100.627 28.552C100.207 28.16 99.9972 27.572 99.9972 26.788V22.35H101.649V26.62C101.649 27.0773 101.752 27.404 101.957 27.6C102.172 27.7867 102.443 27.88 102.769 27.88C103.115 27.88 103.413 27.81 103.665 27.67C103.927 27.5207 104.151 27.3387 104.337 27.124V22.35ZM107.735 29V22.35H109.009L109.219 23.596C109.378 23.2133 109.63 22.8913 109.975 22.63C110.321 22.3593 110.75 22.224 111.263 22.224C111.487 22.224 111.683 22.2473 111.851 22.294C112.019 22.3407 112.159 22.392 112.271 22.448L111.991 23.792C111.889 23.736 111.763 23.6893 111.613 23.652C111.464 23.6053 111.282 23.582 111.067 23.582C110.591 23.582 110.19 23.7453 109.863 24.072C109.537 24.3987 109.373 24.9167 109.373 25.626V29H107.735ZM113.108 29V22.35H114.382L114.592 23.596C114.751 23.2133 115.003 22.8913 115.348 22.63C115.694 22.3593 116.123 22.224 116.636 22.224C116.86 22.224 117.056 22.2473 117.224 22.294C117.392 22.3407 117.532 22.392 117.644 22.448L117.364 23.792C117.262 23.736 117.136 23.6893 116.986 23.652C116.837 23.6053 116.655 23.582 116.44 23.582C115.964 23.582 115.563 23.7453 115.236 24.072C114.91 24.3987 114.746 24.9167 114.746 25.626V29H113.108ZM123.964 26.046H119.442V26.102C119.442 26.7087 119.628 27.1613 120.002 27.46C120.384 27.7587 120.884 27.908 121.5 27.908C121.864 27.908 122.186 27.8753 122.466 27.81C122.755 27.7447 123.03 27.656 123.292 27.544L123.614 28.706C123.343 28.8273 123.021 28.93 122.648 29.014C122.274 29.098 121.84 29.14 121.346 29.14C120.851 29.14 120.384 29.0747 119.946 28.944C119.516 28.8133 119.138 28.608 118.812 28.328C118.485 28.048 118.224 27.6933 118.028 27.264C117.841 26.8347 117.748 26.3213 117.748 25.724C117.748 25.2013 117.827 24.7253 117.986 24.296C118.144 23.8667 118.368 23.498 118.658 23.19C118.947 22.882 119.297 22.644 119.708 22.476C120.118 22.308 120.571 22.224 121.066 22.224C121.952 22.224 122.657 22.4947 123.18 23.036C123.702 23.5773 123.964 24.3287 123.964 25.29V26.046ZM122.27 24.898C122.27 24.702 122.246 24.5153 122.2 24.338C122.153 24.1513 122.078 23.988 121.976 23.848C121.873 23.708 121.738 23.6007 121.57 23.526C121.411 23.442 121.22 23.4 120.996 23.4C120.576 23.4 120.23 23.54 119.96 23.82C119.689 24.1 119.526 24.4687 119.47 24.926L122.27 24.898ZM126.983 29H125.331V22.35H126.619L126.829 23.232C127.147 22.9147 127.487 22.6673 127.851 22.49C128.215 22.3127 128.621 22.224 129.069 22.224C129.788 22.224 130.343 22.4247 130.735 22.826C131.127 23.218 131.323 23.778 131.323 24.506V29H129.671V24.702C129.671 24.3473 129.578 24.0627 129.391 23.848C129.214 23.624 128.943 23.512 128.579 23.512C128.309 23.512 128.033 23.5867 127.753 23.736C127.473 23.876 127.217 24.0673 126.983 24.31V29ZM136.457 27.908C136.756 27.908 137.017 27.8753 137.241 27.81C137.475 27.7353 137.671 27.656 137.829 27.572L138.151 28.734C137.946 28.8367 137.675 28.93 137.339 29.014C137.003 29.098 136.635 29.14 136.233 29.14C135.739 29.14 135.277 29.07 134.847 28.93C134.418 28.7807 134.045 28.5613 133.727 28.272C133.41 27.9827 133.158 27.6233 132.971 27.194C132.794 26.7647 132.705 26.2653 132.705 25.696C132.705 25.1733 132.789 24.6973 132.957 24.268C133.135 23.8387 133.377 23.4747 133.685 23.176C134.003 22.868 134.376 22.6347 134.805 22.476C135.244 22.308 135.725 22.224 136.247 22.224C136.537 22.224 136.835 22.252 137.143 22.308C137.451 22.364 137.783 22.476 138.137 22.644L137.787 23.82C137.573 23.6987 137.353 23.6053 137.129 23.54C136.905 23.4747 136.672 23.442 136.429 23.442C135.813 23.442 135.319 23.6333 134.945 24.016C134.572 24.3893 134.385 24.9353 134.385 25.654C134.385 26.074 134.446 26.4287 134.567 26.718C134.689 27.0073 134.847 27.2407 135.043 27.418C135.239 27.5953 135.459 27.7213 135.701 27.796C135.953 27.8707 136.205 27.908 136.457 27.908ZM138.684 22.35H140.476L141.722 25.738L142.184 27.334H142.226L142.674 25.724L143.794 22.35H145.488L143.01 29.35C142.74 30.1247 142.376 30.792 141.918 31.352C141.461 31.912 140.836 32.3273 140.042 32.598L139.342 31.296C139.837 31.1093 140.257 30.848 140.602 30.512C140.957 30.176 141.214 29.7467 141.372 29.224L141.442 28.986L138.684 22.35Z" fill="white"/>
<g clip-path="url(#clip0)">
<path d="M32.1392 24.0004C32.1381 22.9399 31.7164 21.9232 30.9665 21.1734C30.2167 20.4235 29.2 20.0018 28.1395 20.0007C27.2704 19.9986 26.4249 20.2833 25.7341 20.8105C23.264 19.1984 20.4133 18.2644 17.4681 18.1024L19.1459 14.1662L24.0276 15.3061C24.1032 16.0058 24.4236 16.6563 24.9322 17.1428C25.4408 17.6293 26.1049 17.9204 26.8073 17.9648C27.5096 18.0092 28.2051 17.8041 28.771 17.3856C29.3368 16.9671 29.7366 16.3621 29.8997 15.6775C30.0629 14.9929 29.979 14.2726 29.6627 13.6439C29.3465 13.0151 28.8183 12.5183 28.1713 12.2412C27.5244 11.964 26.8004 11.9244 26.127 12.1291C25.4537 12.3339 24.8743 12.77 24.4913 13.3604L18.7851 12.024C18.5556 11.9703 18.3145 11.9992 18.1041 12.1057C17.8938 12.2121 17.7278 12.3893 17.6351 12.606L15.3152 18.0456C12.1304 18.0981 9.02312 19.0365 6.34165 20.7557C5.66211 20.2577 4.84016 19.992 3.99769 19.998C2.93712 19.9996 1.92051 20.422 1.17101 21.1723C0.421509 21.9227 0.000360777 22.9398 7.97611e-06 24.0004C-0.00140608 24.7051 0.185223 25.3975 0.540641 26.006C0.89606 26.6145 1.4074 27.1172 2.0219 27.4622C2.00587 27.6379 1.99985 27.8183 1.99985 28.0001C1.99985 33.5139 8.28069 38 15.9994 38C23.7182 38 30.001 33.5139 30.001 28.0001C30.001 27.8444 29.995 27.6901 29.985 27.5364C30.6353 27.203 31.1806 26.6963 31.5608 26.0722C31.941 25.4482 32.1412 24.7311 32.1392 24.0004ZM26.9996 14.0005C27.1978 14.0005 27.3916 14.0593 27.5564 14.1694C27.7212 14.2795 27.8497 14.4361 27.9256 14.6192C28.0014 14.8023 28.0213 15.0039 27.9826 15.1983C27.9439 15.3927 27.8485 15.5713 27.7083 15.7115C27.5681 15.8516 27.3895 15.9471 27.1951 15.9858C27.0007 16.0244 26.7992 16.0046 26.616 15.9287C26.4329 15.8529 26.2764 15.7244 26.1662 15.5596C26.0561 15.3948 25.9973 15.201 25.9973 15.0028C25.9973 14.7369 26.1029 14.482 26.2909 14.2941C26.4788 14.1061 26.7338 14.0005 26.9996 14.0005ZM8.99965 26.9998C8.99965 26.6043 9.11694 26.2177 9.33668 25.8888C9.55643 25.5599 9.86876 25.3036 10.2342 25.1522C10.5996 25.0008 11.0017 24.9612 11.3896 25.0384C11.7776 25.1156 12.1339 25.306 12.4136 25.5857C12.6933 25.8654 12.8837 26.2217 12.9609 26.6097C13.0381 26.9976 12.9985 27.3997 12.8471 27.7651C12.6957 28.1306 12.4394 28.4429 12.1105 28.6626C11.7817 28.8824 11.395 28.9997 10.9995 28.9997C10.4695 28.9984 9.96153 28.7873 9.58675 28.4126C9.21198 28.0378 9.00088 27.5298 8.99965 26.9998ZM20.6179 33.6361C19.2749 34.6099 17.6586 35.1342 15.9998 35.1342C14.341 35.1342 12.7246 34.6099 11.3817 33.6361C11.1879 33.4732 11.063 33.2429 11.0321 32.9916C11.0011 32.7403 11.0664 32.4867 11.2148 32.2815C11.3632 32.0764 11.5838 31.9351 11.8322 31.8859C12.0805 31.8367 12.3383 31.8834 12.5537 32.0165C13.5555 32.7439 14.7617 33.1356 15.9998 33.1356C17.2378 33.1356 18.4441 32.7439 19.4459 32.0165C19.6613 31.8834 19.919 31.8367 20.1674 31.8859C20.4158 31.9351 20.6363 32.0764 20.7847 32.2815C20.9332 32.4867 20.9985 32.7403 20.9675 32.9916C20.9365 33.2429 20.8116 33.4732 20.6179 33.6361ZM21.0001 29.0024C20.6045 29.0024 20.2179 28.8851 19.889 28.6653C19.5601 28.4456 19.3038 28.1332 19.1524 27.7678C19.0011 27.4024 18.9615 27.0003 19.0386 26.6124C19.1158 26.2244 19.3063 25.8681 19.586 25.5884C19.8656 25.3087 20.222 25.1183 20.6099 25.0411C20.9978 24.9639 21.3999 25.0035 21.7654 25.1549C22.1308 25.3063 22.4431 25.5626 22.6629 25.8914C22.8826 26.2203 22.9999 26.607 22.9999 27.0025C22.9992 27.5325 22.7882 28.0405 22.4133 28.4151C22.0383 28.7897 21.5301 29.0002 21.0001 29.0003V29.0024Z" fill="white"/>
</g>
<defs>
<clipPath id="clip0">
<rect width="32.1399" height="26" fill="white" transform="translate(0 12)"/>
</clipPath>
</defs>
</svg>
