<svg width="23" height="26" viewBox="0 0 23 26" fill="none" xmlns="http://www.w3.org/2000/svg">
<path d="M9.21301 11.016C8.94569 10.9933 8.67776 11.052 8.4443 11.1841C8.21083 11.3163 8.02272 11.5159 7.90457 11.7568C7.78642 11.9976 7.74375 12.2685 7.78214 12.5341C7.82054 12.7996 7.9382 13.0473 8.11973 13.2449C8.30127 13.4424 8.53821 13.5805 8.79955 13.6412C9.06089 13.7018 9.33445 13.6821 9.58442 13.5847C9.83438 13.4872 10.0491 13.3166 10.2005 13.0951C10.3519 12.8736 10.4329 12.6116 10.4328 12.3433C10.4468 12.0056 10.3262 11.6762 10.0975 11.4273C9.86881 11.1784 9.55069 11.0305 9.21301 11.016ZM13.5771 11.016C13.3098 10.9933 13.0419 11.052 12.8084 11.1841C12.5749 11.3163 12.3868 11.5159 12.2687 11.7568C12.1505 11.9976 12.1079 12.2685 12.1463 12.5341C12.1846 12.7996 12.3023 13.0473 12.4838 13.2449C12.6654 13.4424 12.9023 13.5805 13.1637 13.6412C13.425 13.7018 13.6986 13.6821 13.9485 13.5847C14.1985 13.4872 14.4132 13.3166 14.5646 13.0951C14.716 12.8736 14.797 12.6116 14.7969 12.3433C14.8109 12.0056 14.6903 11.6762 14.4616 11.4273C14.2329 11.1784 13.9148 11.0305 13.5771 11.016Z" fill="white"/>
<path d="M20.085 0H2.665C1.95664 0.00209174 1.27806 0.28529 0.778366 0.78738C0.278668 1.28947 -0.00128659 1.96939 4.44556e-06 2.67776V20.2539C-0.00128659 20.9622 0.278668 21.6422 0.778366 22.1443C1.27806 22.6463 1.95664 22.9295 2.665 22.9316H17.4072L16.7178 20.5272L18.3816 22.0745L19.9544 23.5324L22.7488 26.0024V2.67776C22.7501 1.9696 22.4703 1.28986 21.9709 0.787809C21.4714 0.285753 20.7932 0.00241301 20.085 0ZM15.0654 16.9778C15.0654 16.9778 14.5977 16.4189 14.2077 15.925C15.1499 15.703 15.9833 15.1549 16.5604 14.3778C16.0927 14.6891 15.5911 14.9465 15.0654 15.145C14.4612 15.403 13.8293 15.5905 13.1822 15.7039C12.0688 15.909 10.9269 15.9047 9.81501 15.6911C9.16226 15.5635 8.52256 15.3764 7.90388 15.1322C7.57783 15.0068 7.26078 14.859 6.95501 14.69C6.91613 14.6639 6.87725 14.6511 6.83776 14.625C6.81815 14.6153 6.80046 14.6021 6.78552 14.5861C6.55164 14.4561 6.42103 14.365 6.42103 14.365C6.9774 15.1258 7.7821 15.6684 8.69603 15.8989C8.30603 16.3928 7.82491 16.9778 7.82491 16.9778C4.95215 16.8866 3.85991 15.0016 3.85991 15.0016C3.90221 12.3662 4.54239 9.77474 5.73215 7.42276C6.77904 6.60053 8.05536 6.12358 9.38491 6.05776L9.51491 6.21388C8.26418 6.52286 7.09689 7.1036 6.09603 7.91481C6.09603 7.91481 6.38215 7.75869 6.86328 7.53757C7.79778 7.11105 8.79373 6.83469 9.8144 6.71869C9.88721 6.70358 9.96119 6.69484 10.0355 6.69257C10.9067 6.57902 11.7884 6.57025 12.6616 6.66645C14.0348 6.82325 15.364 7.24713 16.5744 7.91421C15.6244 7.14086 14.521 6.57807 13.3372 6.26308L13.5194 6.05533C14.8489 6.12115 16.1253 6.5981 17.1722 7.42033C18.3629 9.77392 19.0033 12.3673 19.045 15.0047C19.045 15.0047 17.94 16.8879 15.0654 16.9778Z" fill="white"/>
</svg>
