<svg width="26" height="26" viewBox="0 0 26 26" fill="none" xmlns="http://www.w3.org/2000/svg">
<path d="M22.75 0H3.25C2.38832 0.000905598 1.5622 0.343606 0.952903 0.952903C0.343606 1.5622 0.000905598 2.38832 0 3.25L0 22.75C0.000905598 23.6117 0.343606 24.4378 0.952903 25.0471C1.5622 25.6564 2.38832 25.9991 3.25 26H13V17.0628H9.75V13H13V9.75C13 8.45707 13.5136 7.21709 14.4279 6.30285C15.3421 5.38862 16.5821 4.875 17.875 4.875H21.125V8.93784H19.5C18.603 8.93784 17.875 8.85368 17.875 9.75068V13H21.9378L20.3128 17.0628H17.875V26H22.75C23.6117 25.9991 24.4378 25.6564 25.0471 25.0471C25.6564 24.4378 25.9991 23.6117 26 22.75V3.25C25.9991 2.38832 25.6564 1.5622 25.0471 0.952903C24.4378 0.343606 23.6117 0.000905598 22.75 0V0Z" fill="white"/>
</svg>
