<svg width="169" height="49" viewBox="0 0 169 49" fill="none" xmlns="http://www.w3.org/2000/svg">
<path d="M22.75 10H3.25C2.38832 10.0009 1.5622 10.3436 0.952903 10.9529C0.343606 11.5622 0.000905598 12.3883 0 13.25L0 32.75C0.000905598 33.6117 0.343606 34.4378 0.952903 35.0471C1.5622 35.6564 2.38832 35.9991 3.25 36H13V27.0628H9.75V23H13V19.75C13 18.4571 13.5136 17.2171 14.4279 16.3029C15.3421 15.3886 16.5821 14.875 17.875 14.875H21.125V18.9378H19.5C18.603 18.9378 17.875 18.8537 17.875 19.7507V23H21.9378L20.3128 27.0628H17.875V36H22.75C23.6117 35.9991 24.4378 35.6564 25.0471 35.0471C25.6564 34.4378 25.9991 33.6117 26 32.75V13.25C25.9991 12.3883 25.6564 11.5622 25.0471 10.9529C24.4378 10.3436 23.6117 10.0009 22.75 10V10Z" fill="white"/>
<path d="M46.986 30.526L50.962 18.5H52.222L48.246 30.526H46.986ZM54.4422 29H52.7902V22.35H54.0782L54.2882 23.232C54.6055 22.9147 54.9462 22.6673 55.3102 22.49C55.6742 22.3127 56.0802 22.224 56.5282 22.224C57.2469 22.224 57.8022 22.4247 58.1942 22.826C58.5862 23.218 58.7822 23.778 58.7822 24.506V29H57.1302V24.702C57.1302 24.3473 57.0369 24.0627 56.8502 23.848C56.6729 23.624 56.4022 23.512 56.0382 23.512C55.7675 23.512 55.4922 23.5867 55.2122 23.736C54.9322 23.876 54.6755 24.0673 54.4422 24.31V29ZM60.5718 22.938C60.9825 22.714 61.3978 22.5413 61.8178 22.42C62.2378 22.2893 62.6998 22.224 63.2038 22.224C63.5958 22.224 63.9505 22.2707 64.2678 22.364C64.5851 22.448 64.8605 22.588 65.0938 22.784C65.3271 22.98 65.5045 23.2367 65.6258 23.554C65.7565 23.862 65.8218 24.24 65.8218 24.688V29H64.5198L64.3518 28.3H64.3098C63.8338 28.86 63.1571 29.14 62.2798 29.14C61.5798 29.14 61.0338 28.958 60.6418 28.594C60.2498 28.2207 60.0538 27.74 60.0538 27.152C60.0538 26.7787 60.1331 26.4567 60.2918 26.186C60.4505 25.9153 60.6651 25.6913 60.9358 25.514C61.2158 25.3367 61.5471 25.206 61.9298 25.122C62.3125 25.0287 62.7278 24.982 63.1758 24.982H64.1558V24.52C64.1558 24.156 64.0485 23.8993 63.8338 23.75C63.6191 23.5913 63.3298 23.512 62.9658 23.512C62.7045 23.512 62.4245 23.554 62.1258 23.638C61.8365 23.722 61.5145 23.8667 61.1598 24.072L60.5718 22.938ZM64.1698 26.032L63.4138 26.06C62.7978 26.0787 62.3685 26.186 62.1258 26.382C61.8831 26.5687 61.7618 26.7973 61.7618 27.068C61.7618 27.4133 61.8645 27.6467 62.0698 27.768C62.2751 27.8893 62.5131 27.95 62.7838 27.95C63.0545 27.95 63.3111 27.8847 63.5538 27.754C63.8058 27.614 64.0111 27.4227 64.1698 27.18V26.032ZM69.1258 29H67.4738V22.35H68.7618L68.9718 23.232C69.2891 22.9147 69.6298 22.6673 69.9938 22.49C70.3578 22.3127 70.7638 22.224 71.2118 22.224C71.9305 22.224 72.4858 22.4247 72.8778 22.826C73.2698 23.218 73.4658 23.778 73.4658 24.506V29H71.8138V24.702C71.8138 24.3473 71.7205 24.0627 71.5338 23.848C71.3565 23.624 71.0858 23.512 70.7218 23.512C70.4511 23.512 70.1758 23.5867 69.8958 23.736C69.6158 23.876 69.3591 24.0673 69.1258 24.31V29ZM81.5678 25.626C81.5678 26.1767 81.4791 26.6713 81.3018 27.11C81.1338 27.5487 80.8958 27.9173 80.5878 28.216C80.2798 28.5147 79.9204 28.7433 79.5098 28.902C79.0991 29.0607 78.6558 29.14 78.1798 29.14C77.7038 29.14 77.2604 29.0653 76.8498 28.916C76.4484 28.7667 76.0984 28.552 75.7998 28.272C75.5011 27.9827 75.2678 27.628 75.0998 27.208C74.9318 26.788 74.8478 26.3073 74.8478 25.766C74.8478 25.206 74.9318 24.7067 75.0998 24.268C75.2771 23.82 75.5198 23.4467 75.8278 23.148C76.1358 22.8493 76.4951 22.6207 76.9058 22.462C77.3164 22.3033 77.7598 22.224 78.2358 22.224C78.7118 22.224 79.1504 22.2987 79.5518 22.448C79.9624 22.588 80.3171 22.8027 80.6158 23.092C80.9144 23.3813 81.1478 23.736 81.3158 24.156C81.4838 24.576 81.5678 25.066 81.5678 25.626ZM79.8598 25.696C79.8598 25.2947 79.8131 24.954 79.7198 24.674C79.6264 24.3847 79.5004 24.1513 79.3418 23.974C79.1924 23.7967 79.0151 23.666 78.8098 23.582C78.6138 23.498 78.4084 23.456 78.1938 23.456C77.9791 23.456 77.7738 23.4933 77.5778 23.568C77.3818 23.6333 77.2091 23.7547 77.0598 23.932C76.9104 24.1 76.7891 24.3287 76.6958 24.618C76.6024 24.9073 76.5558 25.2667 76.5558 25.696C76.5558 26.088 76.6024 26.424 76.6958 26.704C76.7891 26.9747 76.9104 27.2033 77.0598 27.39C77.2184 27.5673 77.3958 27.698 77.5918 27.782C77.7971 27.866 78.0071 27.908 78.2218 27.908C78.4271 27.908 78.6278 27.8707 78.8238 27.796C79.0291 27.7213 79.2064 27.6 79.3558 27.432C79.5051 27.264 79.6264 27.04 79.7198 26.76C79.8131 26.4707 79.8598 26.116 79.8598 25.696ZM85.5824 18.99C85.8997 18.99 86.2124 19.032 86.5204 19.116C86.8284 19.2 87.1037 19.3073 87.3464 19.438L87.0244 20.53C86.8564 20.4553 86.6884 20.3947 86.5204 20.348C86.3617 20.3013 86.189 20.278 86.0024 20.278C85.6384 20.278 85.3677 20.3853 85.1904 20.6C85.0224 20.8147 84.9384 21.174 84.9384 21.678V22.35H86.7304V23.554H84.9384V29H83.3004V23.554H82.3064V22.35H83.3004V21.272C83.3004 20.5347 83.5057 19.97 83.9164 19.578C84.327 19.186 84.8824 18.99 85.5824 18.99ZM94.0228 25.626C94.0228 26.1767 93.9342 26.6713 93.7568 27.11C93.5888 27.5487 93.3508 27.9173 93.0428 28.216C92.7348 28.5147 92.3755 28.7433 91.9648 28.902C91.5542 29.0607 91.1108 29.14 90.6348 29.14C90.1588 29.14 89.7155 29.0653 89.3048 28.916C88.9035 28.7667 88.5535 28.552 88.2548 28.272C87.9562 27.9827 87.7228 27.628 87.5548 27.208C87.3868 26.788 87.3028 26.3073 87.3028 25.766C87.3028 25.206 87.3868 24.7067 87.5548 24.268C87.7322 23.82 87.9748 23.4467 88.2828 23.148C88.5908 22.8493 88.9502 22.6207 89.3608 22.462C89.7715 22.3033 90.2148 22.224 90.6908 22.224C91.1668 22.224 91.6055 22.2987 92.0068 22.448C92.4175 22.588 92.7722 22.8027 93.0708 23.092C93.3695 23.3813 93.6028 23.736 93.7708 24.156C93.9388 24.576 94.0228 25.066 94.0228 25.626ZM92.3148 25.696C92.3148 25.2947 92.2682 24.954 92.1748 24.674C92.0815 24.3847 91.9555 24.1513 91.7968 23.974C91.6475 23.7967 91.4702 23.666 91.2648 23.582C91.0688 23.498 90.8635 23.456 90.6488 23.456C90.4342 23.456 90.2288 23.4933 90.0328 23.568C89.8368 23.6333 89.6642 23.7547 89.5148 23.932C89.3655 24.1 89.2442 24.3287 89.1508 24.618C89.0575 24.9073 89.0108 25.2667 89.0108 25.696C89.0108 26.088 89.0575 26.424 89.1508 26.704C89.2442 26.9747 89.3655 27.2033 89.5148 27.39C89.6735 27.5673 89.8508 27.698 90.0468 27.782C90.2522 27.866 90.4622 27.908 90.6768 27.908C90.8822 27.908 91.0828 27.8707 91.2788 27.796C91.4842 27.7213 91.6615 27.6 91.8108 27.432C91.9602 27.264 92.0815 27.04 92.1748 26.76C92.2682 26.4707 92.3148 26.116 92.3148 25.696ZM99.7454 22.35H101.397V29H100.151L99.9554 28.23H99.8994C99.6848 28.454 99.4001 28.664 99.0454 28.86C98.6908 29.0467 98.2474 29.14 97.7154 29.14C97.0154 29.14 96.4554 28.944 96.0354 28.552C95.6154 28.16 95.4054 27.572 95.4054 26.788V22.35H97.0574V26.62C97.0574 27.0773 97.1601 27.404 97.3654 27.6C97.5801 27.7867 97.8508 27.88 98.1774 27.88C98.5228 27.88 98.8214 27.81 99.0734 27.67C99.3348 27.5207 99.5588 27.3387 99.7454 27.124V22.35ZM104.809 29H103.157V22.35H104.445L104.655 23.232C104.973 22.9147 105.313 22.6673 105.677 22.49C106.041 22.3127 106.447 22.224 106.895 22.224C107.614 22.224 108.169 22.4247 108.561 22.826C108.953 23.218 109.149 23.778 109.149 24.506V29H107.497V24.702C107.497 24.3473 107.404 24.0627 107.217 23.848C107.04 23.624 106.769 23.512 106.405 23.512C106.135 23.512 105.859 23.5867 105.579 23.736C105.299 23.876 105.043 24.0673 104.809 24.31V29ZM115.235 19.032H116.887V29H115.655L115.473 28.272H115.417C115.203 28.524 114.941 28.734 114.633 28.902C114.325 29.0607 113.929 29.14 113.443 29.14C113.051 29.14 112.678 29.0653 112.323 28.916C111.969 28.7667 111.656 28.5473 111.385 28.258C111.124 27.9593 110.914 27.5953 110.755 27.166C110.606 26.7367 110.531 26.242 110.531 25.682C110.531 25.1593 110.597 24.688 110.727 24.268C110.867 23.8387 111.068 23.4747 111.329 23.176C111.591 22.868 111.908 22.6347 112.281 22.476C112.664 22.308 113.093 22.224 113.569 22.224C113.896 22.224 114.204 22.2753 114.493 22.378C114.792 22.4713 115.039 22.6067 115.235 22.784V19.032ZM115.235 24.058C115.077 23.8713 114.89 23.722 114.675 23.61C114.461 23.498 114.223 23.442 113.961 23.442C113.728 23.442 113.504 23.484 113.289 23.568C113.084 23.6427 112.897 23.7687 112.729 23.946C112.571 24.1233 112.44 24.352 112.337 24.632C112.244 24.912 112.197 25.248 112.197 25.64C112.197 26.032 112.239 26.3727 112.323 26.662C112.417 26.9513 112.538 27.1893 112.687 27.376C112.837 27.5533 113.009 27.6887 113.205 27.782C113.411 27.866 113.625 27.908 113.849 27.908C114.157 27.908 114.428 27.838 114.661 27.698C114.895 27.5487 115.086 27.3573 115.235 27.124V24.058ZM118.759 22.938C119.17 22.714 119.585 22.5413 120.005 22.42C120.425 22.2893 120.887 22.224 121.391 22.224C121.783 22.224 122.138 22.2707 122.455 22.364C122.773 22.448 123.048 22.588 123.281 22.784C123.515 22.98 123.692 23.2367 123.813 23.554C123.944 23.862 124.009 24.24 124.009 24.688V29H122.707L122.539 28.3H122.497C122.021 28.86 121.345 29.14 120.467 29.14C119.767 29.14 119.221 28.958 118.829 28.594C118.437 28.2207 118.241 27.74 118.241 27.152C118.241 26.7787 118.321 26.4567 118.479 26.186C118.638 25.9153 118.853 25.6913 119.123 25.514C119.403 25.3367 119.735 25.206 120.117 25.122C120.5 25.0287 120.915 24.982 121.363 24.982H122.343V24.52C122.343 24.156 122.236 23.8993 122.021 23.75C121.807 23.5913 121.517 23.512 121.153 23.512C120.892 23.512 120.612 23.554 120.313 23.638C120.024 23.722 119.702 23.8667 119.347 24.072L118.759 22.938ZM122.357 26.032L121.601 26.06C120.985 26.0787 120.556 26.186 120.313 26.382C120.071 26.5687 119.949 26.7973 119.949 27.068C119.949 27.4133 120.052 27.6467 120.257 27.768C120.463 27.8893 120.701 27.95 120.971 27.95C121.242 27.95 121.499 27.8847 121.741 27.754C121.993 27.614 122.199 27.4227 122.357 27.18V26.032ZM129.606 23.554H127.772V26.886C127.772 27.2033 127.847 27.4227 127.996 27.544C128.155 27.656 128.355 27.712 128.598 27.712C128.785 27.712 128.981 27.6933 129.186 27.656C129.391 27.6187 129.564 27.5673 129.704 27.502L129.956 28.678C129.779 28.7527 129.536 28.8273 129.228 28.902C128.929 28.9673 128.607 29 128.262 29C127.506 29 126.96 28.846 126.624 28.538C126.297 28.23 126.134 27.768 126.134 27.152V23.554H125.126V22.35H126.134V20.278H127.772V22.35H129.606V23.554ZM131.216 29V22.35H132.868V29H131.216ZM132.042 20.824C131.752 20.824 131.524 20.74 131.356 20.572C131.197 20.404 131.118 20.194 131.118 19.942C131.118 19.6993 131.202 19.494 131.37 19.326C131.538 19.1487 131.762 19.06 132.042 19.06C132.312 19.06 132.532 19.144 132.7 19.312C132.868 19.48 132.952 19.69 132.952 19.942C132.952 20.194 132.868 20.404 132.7 20.572C132.532 20.74 132.312 20.824 132.042 20.824ZM141.122 25.626C141.122 26.1767 141.034 26.6713 140.856 27.11C140.688 27.5487 140.45 27.9173 140.142 28.216C139.834 28.5147 139.475 28.7433 139.064 28.902C138.654 29.0607 138.21 29.14 137.734 29.14C137.258 29.14 136.815 29.0653 136.404 28.916C136.003 28.7667 135.653 28.552 135.354 28.272C135.056 27.9827 134.822 27.628 134.654 27.208C134.486 26.788 134.402 26.3073 134.402 25.766C134.402 25.206 134.486 24.7067 134.654 24.268C134.832 23.82 135.074 23.4467 135.382 23.148C135.69 22.8493 136.05 22.6207 136.46 22.462C136.871 22.3033 137.314 22.224 137.79 22.224C138.266 22.224 138.705 22.2987 139.106 22.448C139.517 22.588 139.872 22.8027 140.17 23.092C140.469 23.3813 140.702 23.736 140.87 24.156C141.038 24.576 141.122 25.066 141.122 25.626ZM139.414 25.696C139.414 25.2947 139.368 24.954 139.274 24.674C139.181 24.3847 139.055 24.1513 138.896 23.974C138.747 23.7967 138.57 23.666 138.364 23.582C138.168 23.498 137.963 23.456 137.748 23.456C137.534 23.456 137.328 23.4933 137.132 23.568C136.936 23.6333 136.764 23.7547 136.614 23.932C136.465 24.1 136.344 24.3287 136.25 24.618C136.157 24.9073 136.11 25.2667 136.11 25.696C136.11 26.088 136.157 26.424 136.25 26.704C136.344 26.9747 136.465 27.2033 136.614 27.39C136.773 27.5673 136.95 27.698 137.146 27.782C137.352 27.866 137.562 27.908 137.776 27.908C137.982 27.908 138.182 27.8707 138.378 27.796C138.584 27.7213 138.761 27.6 138.91 27.432C139.06 27.264 139.181 27.04 139.274 26.76C139.368 26.4707 139.414 26.116 139.414 25.696ZM144.157 29H142.505V22.35H143.793L144.003 23.232C144.32 22.9147 144.661 22.6673 145.025 22.49C145.389 22.3127 145.795 22.224 146.243 22.224C146.962 22.224 147.517 22.4247 147.909 22.826C148.301 23.218 148.497 23.778 148.497 24.506V29H146.845V24.702C146.845 24.3473 146.752 24.0627 146.565 23.848C146.388 23.624 146.117 23.512 145.753 23.512C145.482 23.512 145.207 23.5867 144.927 23.736C144.647 23.876 144.39 24.0673 144.157 24.31V29Z" fill="white"/>
</svg>
