<svg width="45" height="44" viewBox="0 0 45 44" fill="none" xmlns="http://www.w3.org/2000/svg">
<rect x="1.04001" y="0.5" width="43" height="43" rx="4.5" fill="#03A9F4" stroke="#E2E2E2"/>
<g clip-path="url(#clip0)">
<path d="M33.1 16.0315C32.3146 16.376 31.4777 16.6044 30.6052 16.7152C31.5028 16.1793 32.1879 15.3372 32.51 14.3221C31.6731 14.821 30.7491 15.1735 29.7644 15.3702C28.9697 14.524 27.8372 14 26.6016 14C24.2045 14 22.2747 15.9457 22.2747 18.3309C22.2747 18.6741 22.3037 19.0041 22.375 19.3183C18.7754 19.1427 15.5902 17.4175 13.4505 14.7894C13.0769 15.4375 12.8578 16.1793 12.8578 16.9779C12.8578 18.4774 13.63 19.8067 14.781 20.5762C14.0854 20.563 13.403 20.3611 12.8248 20.043C12.8248 20.0562 12.8248 20.0733 12.8248 20.0905C12.8248 22.1946 14.3256 23.9422 16.2938 24.3448C15.9413 24.4412 15.5572 24.4874 15.1586 24.4874C14.8814 24.4874 14.6015 24.4716 14.3388 24.4135C14.8998 26.1282 16.4918 27.3888 18.3846 27.4297C16.9115 28.582 15.0411 29.2764 13.0162 29.2764C12.6611 29.2764 12.3206 29.2605 11.98 29.217C13.898 30.4538 16.171 31.16 18.6222 31.16C26.5898 31.16 30.9458 24.56 30.9458 18.8391C30.9458 18.6477 30.9392 18.4629 30.9299 18.2794C31.7892 17.6696 32.5113 16.908 33.1 16.0315Z" fill="white"/>
</g>
<defs>
<clipPath id="clip0">
<rect x="11.98" y="10.56" width="21.12" height="21.12" fill="white"/>
</clipPath>
</defs>
</svg>
