<svg width="33" height="26" viewBox="0 0 33 26" fill="none" xmlns="http://www.w3.org/2000/svg">
<path d="M32.1392 12.0004C32.1381 10.9399 31.7164 9.92322 30.9665 9.17336C30.2167 8.4235 29.2 8.00176 28.1395 8.0007C27.2704 7.99865 26.4249 8.28329 25.7341 8.81053C23.264 7.19839 20.4133 6.26443 17.4681 6.10242L19.1459 2.1662L24.0276 3.30611C24.1032 4.00583 24.4236 4.65633 24.9322 5.1428C25.4408 5.62926 26.1049 5.9204 26.8073 5.96482C27.5096 6.00924 28.2051 5.80408 28.771 5.38557C29.3368 4.96705 29.7366 4.36209 29.8997 3.67748C30.0629 2.99286 29.979 2.27261 29.6627 1.64388C29.3465 1.01514 28.8183 0.518349 28.1713 0.241196C27.5244 -0.035957 26.8004 -0.0756489 26.127 0.129129C25.4537 0.333907 24.8743 0.769986 24.4913 1.36038L18.7851 0.024036C18.5556 -0.029661 18.3145 -0.00075019 18.1041 0.105687C17.8938 0.212124 17.7278 0.389279 17.6351 0.606017L15.3152 6.04562C12.1304 6.0981 9.02312 7.03654 6.34165 8.75574C5.66211 8.25774 4.84016 7.99204 3.99769 7.99803C2.93712 7.99962 1.92051 8.42196 1.17101 9.17234C0.421509 9.92272 0.000360777 10.9398 7.97611e-06 12.0004C-0.00140608 12.7051 0.185223 13.3975 0.540641 14.006C0.89606 14.6145 1.4074 15.1172 2.0219 15.4622C2.00587 15.6379 1.99985 15.8183 1.99985 16.0001C1.99985 21.5139 8.28069 26 15.9994 26C23.7182 26 30.001 21.5139 30.001 16.0001C30.001 15.8444 29.995 15.6901 29.985 15.5364C30.6353 15.203 31.1806 14.6963 31.5608 14.0722C31.941 13.4482 32.1412 12.7311 32.1392 12.0004ZM26.9996 2.0005C27.1978 2.0005 27.3916 2.05928 27.5564 2.16941C27.7212 2.27954 27.8497 2.43607 27.9256 2.61921C28.0014 2.80235 28.0213 3.00387 27.9826 3.19829C27.9439 3.39271 27.8485 3.5713 27.7083 3.71146C27.5681 3.85163 27.3895 3.94709 27.1951 3.98576C27.0007 4.02444 26.7992 4.00459 26.616 3.92873C26.4329 3.85287 26.2764 3.72441 26.1662 3.55958C26.0561 3.39476 25.9973 3.20099 25.9973 3.00276C25.9973 2.73694 26.1029 2.48201 26.2909 2.29405C26.4788 2.10609 26.7338 2.0005 26.9996 2.0005ZM8.99965 14.9998C8.99965 14.6043 9.11694 14.2177 9.33668 13.8888C9.55643 13.5599 9.86876 13.3036 10.2342 13.1522C10.5996 13.0008 11.0017 12.9612 11.3896 13.0384C11.7776 13.1156 12.1339 13.306 12.4136 13.5857C12.6933 13.8654 12.8837 14.2217 12.9609 14.6097C13.0381 14.9976 12.9985 15.3997 12.8471 15.7651C12.6957 16.1306 12.4394 16.4429 12.1105 16.6626C11.7817 16.8824 11.395 16.9997 10.9995 16.9997C10.4695 16.9984 9.96153 16.7873 9.58675 16.4126C9.21198 16.0378 9.00088 15.5298 8.99965 14.9998ZM20.6179 21.6361C19.2749 22.6099 17.6586 23.1342 15.9998 23.1342C14.341 23.1342 12.7246 22.6099 11.3817 21.6361C11.1879 21.4732 11.063 21.2429 11.0321 20.9916C11.0011 20.7403 11.0664 20.4867 11.2148 20.2815C11.3632 20.0764 11.5838 19.9351 11.8322 19.8859C12.0805 19.8367 12.3383 19.8834 12.5537 20.0165C13.5555 20.7439 14.7617 21.1356 15.9998 21.1356C17.2378 21.1356 18.4441 20.7439 19.4459 20.0165C19.6613 19.8834 19.919 19.8367 20.1674 19.8859C20.4158 19.9351 20.6363 20.0764 20.7847 20.2815C20.9332 20.4867 20.9985 20.7403 20.9675 20.9916C20.9365 21.2429 20.8116 21.4732 20.6179 21.6361ZM21.0001 17.0024C20.6045 17.0024 20.2179 16.8851 19.889 16.6653C19.5601 16.4456 19.3038 16.1332 19.1524 15.7678C19.0011 15.4024 18.9615 15.0003 19.0386 14.6124C19.1158 14.2244 19.3063 13.8681 19.586 13.5884C19.8656 13.3087 20.222 13.1183 20.6099 13.0411C20.9978 12.9639 21.3999 13.0035 21.7654 13.1549C22.1308 13.3063 22.4431 13.5626 22.6629 13.8914C22.8826 14.2203 22.9999 14.607 22.9999 15.0025C22.9992 15.5325 22.7882 16.0405 22.4133 16.4151C22.0383 16.7897 21.5301 17.0002 21.0001 17.0003V17.0024Z" fill="white"/>
</svg>
