<svg width="32" height="26" viewBox="0 0 32 26" fill="none" xmlns="http://www.w3.org/2000/svg">
<path d="M32.0004 3.07835C30.7966 3.60324 29.5236 3.95206 28.2204 4.11404C29.5938 3.29925 30.6206 2.00901 31.1063 0.487768C29.8203 1.25055 28.4133 1.78773 26.9462 2.07606C26.0467 1.11545 24.8791 0.44759 23.5951 0.159262C22.3111 -0.129067 20.9701 -0.0245312 19.7463 0.459286C18.5224 0.943103 17.4724 1.78383 16.7327 2.87222C15.993 3.9606 15.5977 5.24632 15.5983 6.5623C15.593 7.06508 15.6439 7.56688 15.7499 8.05838C13.1401 7.93035 10.5866 7.25293 8.25644 6.07041C5.9263 4.8879 3.87197 3.22692 2.22775 1.19605C1.38358 2.63938 1.1222 4.35051 1.49698 5.98003C1.87177 7.60956 2.85444 9.03456 4.24435 9.96406C3.20569 9.9356 2.18909 9.65785 1.28025 9.15421V9.22638C1.28205 10.7412 1.80567 12.2092 2.76296 13.3833C3.72025 14.5573 5.05277 15.3657 6.53625 15.6724C5.97504 15.8203 5.39666 15.8928 4.81632 15.8882C4.39944 15.8956 3.98297 15.8579 3.57416 15.776C3.99822 17.0779 4.81537 18.2164 5.91314 19.0348C7.01092 19.8531 8.33534 20.3111 9.70414 20.3458C7.38228 22.1625 4.51842 23.1485 1.57025 23.1461C1.04544 23.1496 0.520953 23.1195 0 23.0559C2.99988 24.989 6.49556 26.0116 10.0643 26C22.1365 26 28.7362 15.9998 28.7362 7.33205C28.7362 7.04206 28.7262 6.76209 28.7122 6.48412C30.0062 5.55818 31.1204 4.40404 32.0004 3.07835Z" fill="white"/>
</svg>
